Patient4_TMGait_0pt7_02_left_41_GRF.mot
version=1
nRows=58
nColumns=19
inDegrees=no
endheader
time	F1x	F1y	F1z	M1x	M1y	M1z	F2x	F2y	F2z	M2x	M2y	M2z	EC1x	EC1y	EC1z	EC2x	EC2y	EC2z
46.97	-7.7401	21.4571	-9.6226	-6.0425	5.3791	22.1528	-55.7939	711.8372	-52.0053	244.4792	68.5844	717.4882	-0.0592	0.0182	-0.0073	-0.0462	0.0165	0.9585
46.9815	-5.4183	15.037	-6.4434	-4.3045	3.5194	15.6365	-48.0898	720.4374	-55.8258	246.6986	70.2028	722.4415	-0.0592	0.0182	-0.0073	-0.0462	0.0165	0.9585
46.993	-3.4385	9.6975	-3.7762	-2.8575	1.9603	10.1637	-41.4409	730.1715	-58.995	249.3567	71.3309	727.9552	-0.0592	0.0182	-0.0073	-0.0462	0.0165	0.9585
47.0045	-1.9064	5.6961	-1.7303	-1.7722	0.76051	6.0096	-36.0679	740.3312	-61.3773	252.2453	71.8985	733.4275	-0.0592	0.0182	-0.0073	-0.0462	0.0165	0.9585
47.016	-0.85323	3.0091	-0.33479	-1.0447	-0.05912	3.2142	-31.876	750.1983	-62.9319	255.1261	71.855	738.2541	-0.0592	0.0182	-0.0073	-0.0462	0.0165	0.9585
47.0275	-0.18273	1.3975	0.53937	-0.60939	-0.57732	1.5205	-28.5835	758.9919	-63.7875	257.7307	71.2692	741.7363	-0.0592	0.0182	-0.0073	-0.0462	0.0165	0.9585
47.039	0.15815	0.58349	0.99824	-0.38763	-0.86008	0.67717	-25.8685	766.086	-64.0617	259.8334	70.1925	743.3584	-0.0592	0.0182	-0.0073	-0.0462	0.0165	0.9585
47.0505	0.29802	0.24792	1.1898	-0.28599	-0.99657	0.32381	-23.3986	770.9896	-63.8734	261.2558	68.6746	742.6867	-0.0592	0.0182	-0.0073	-0.0462	0.0165	0.9585
47.062	0.27278	0.14755	1.2185	-0.22813	-1.0583	0.22155	-20.9521	773.3871	-63.3425	261.8778	66.7911	739.4766	-0.0592	0.0182	-0.0073	-0.0462	0.0165	0.9585
47.0735	0.17687	0.025577	1.1736	-0.13715	-1.0911	0.065065	-18.3264	773.1553	-62.5073	261.6484	64.5397	733.6517	-0.0592	0.0182	-0.0073	-0.0462	0.0165	0.9585
47.085	0.0048468	-0.29962	1.1203	0.042839	-1.1458	-0.31695	-15.415	770.3696	-61.4749	260.5799	62.0034	725.3479	-0.0592	0.0182	-0.0073	-0.0462	0.0165	0.9585
47.0965	-0.16492	-1.0096	1.0912	0.36568	-1.2253	-1.1457	-12.1423	765.2931	-60.2835	258.7547	59.2033	714.847	-0.0592	0.0182	-0.0073	-0.0462	0.0165	0.9585
47.108	-0.34633	-2.1826	1.1075	0.85891	-1.3414	-2.4751	-8.4658	758.4208	-59.0741	256.329	56.2658	702.6749	-0.0592	0.0182	-0.0073	-0.0462	0.0165	0.9585
47.1195	-0.45591	-3.8274	1.1495	1.519	-1.4494	-4.3436	-4.4103	750.4011	-57.9459	253.5191	53.2902	689.4749	-0.0592	0.0182	-0.0073	-0.0462	0.0165	0.9585
47.131	-0.49131	-5.7855	1.1861	2.2865	-1.5065	-6.5453	-0.023288	742.0478	-57.0543	250.5897	50.4327	676.0315	-0.0592	0.0182	-0.0073	-0.0462	0.0165	0.9585
47.1425	-0.33284	-7.7226	1.141	3.0277	-1.3962	-8.7385	4.607	734.1373	-56.4962	247.8021	47.8039	663.0737	-0.0592	0.0182	-0.0073	-0.0462	0.0165	0.9585
47.154	0.048375	-9.0023	0.92236	3.4981	-0.99323	-10.1991	9.3596	727.3589	-56.3423	245.3927	45.5026	651.2448	-0.0592	0.0182	-0.0073	-0.0462	0.0165	0.9585
47.1655	0.78898	-8.694	0.40425	3.3314	-0.11435	-9.9266	14.1039	722.2796	-56.6128	243.5569	43.5933	641.0805	-0.0592	0.0182	-0.0073	-0.0462	0.0165	0.9585
47.177	1.9264	-5.4559	-0.55419	2.0138	1.4128	-6.4256	18.6744	719.196	-57.2428	242.4045	42.0697	632.8594	-0.0592	0.0182	-0.0073	-0.0462	0.0165	0.9585
47.1885	3.5593	2.36	-2.0912	-1.0917	3.7557	2.0702	22.9333	718.1725	-58.1702	241.9626	40.9294	626.6627	-0.0592	0.0182	-0.0073	-0.0462	0.0165	0.9585
47.2	5.6092	16.6601	-4.2896	-6.7136	6.9732	17.6443	26.7591	718.9077	-59.232	242.1391	40.0694	622.2298	-0.0592	0.0182	-0.0073	-0.0462	0.0165	0.9585
47.2115	7.939	39.2497	-7.137	-15.5409	10.9828	42.2243	30.0718	720.7215	-60.2674	242.707	39.3861	619.004	-0.0592	0.0182	-0.0073	-0.0462	0.0165	0.9585
47.223	10.1069	71.3145	-10.4248	-28.0137	15.3868	77.1219	32.861	722.4807	-61.0299	243.2842	38.682	616.0316	-0.0592	0.0182	-0.0073	-0.0462	0.0165	0.9585
47.2345	11.4659	112.5771	-13.6767	-44.0005	19.3919	122.0237	35.1458	722.5917	-61.2971	243.332	37.7774	611.9653	-0.0592	0.0182	-0.0073	-0.0462	0.0165	0.9585
47.246	10.9666	160.2655	-16.0248	-62.3892	21.6464	173.9579	37.0011	719.1687	-60.8266	242.2109	36.4544	605.2341	-0.0592	0.0182	-0.0073	-0.0462	0.0165	0.9585
47.2575	7.9197	208.4238	-16.3832	-80.8291	20.6931	226.432	38.4592	710.2068	-59.4277	239.2372	34.5537	594.1915	-0.0592	0.0182	-0.0073	-0.0462	0.0165	0.9585
47.269	3.1971	249.4139	-13.4634	-96.3468	15.5498	271.0598	39.554	693.9231	-57.0306	233.8053	32.0266	577.3811	-0.0592	0.0182	-0.0073	-0.0462	0.0165	0.9585
47.2805	-1.8863	279.2625	-7.6719	-107.432	7.2436	303.3261	40.2867	669.2599	-53.7011	225.5499	28.9398	553.9738	-0.0592	0.0182	-0.0073	-0.0462	0.0165	0.9585
47.292	-6.6391	299.6717	-0.31461	-114.7635	-2.5742	324.9008	40.6485	636.1445	-49.6809	214.4303	25.4943	523.9655	-0.0592	0.0182	-0.0073	-0.0462	0.0165	0.9585
47.3035	-10.7338	314.932	8.0467	-120.0252	-13.1018	340.4066	40.6572	595.2982	-45.2913	200.6817	21.9315	487.9898	-0.0592	0.0182	-0.0073	-0.0462	0.0165	0.9585
47.315	-14.0497	329.4943	16.0662	-124.9988	-22.9005	354.6333	40.271	548.0216	-40.7504	184.7436	18.4301	447.1756	-0.0592	0.0182	-0.0073	-0.0462	0.0165	0.9585
47.3265	-16.6493	346.6472	23.4143	-130.9871	-31.594	371.1643	39.3914	495.8318	-36.0863	167.146	15.0346	402.8023	-0.0592	0.0182	-0.0073	-0.0462	0.0165	0.9585
47.338	-18.5365	368.2538	29.1977	-138.7587	-38.2936	391.885	37.9068	440.4016	-31.2489	148.4675	11.7448	356.2836	-0.0592	0.0182	-0.0073	-0.0462	0.0165	0.9585
47.3495	-19.7079	394.8929	33.4461	-148.5417	-43.014	417.4079	35.7185	383.3818	-26.1745	129.2798	8.542	308.9652	-0.0592	0.0182	-0.0073	-0.0462	0.0165	0.9585
47.361	-20.1282	426.5593	36.2273	-160.3098	-45.8349	447.6633	32.7675	326.4885	-20.9342	110.1597	5.4981	262.2334	-0.0592	0.0182	-0.0073	-0.0462	0.0165	0.9585
47.3725	-19.7566	462.596	38.1176	-173.7495	-47.3407	481.9805	29.1098	271.4018	-15.7009	91.6667	2.7164	217.3841	-0.0592	0.0182	-0.0073	-0.0462	0.0165	0.9585
47.384	-18.7497	501.6799	39.9148	-188.2827	-48.4127	519.0333	24.8948	219.7296	-10.7727	74.3281	0.3641	175.6336	-0.0592	0.0182	-0.0073	-0.0462	0.0165	0.9585
47.3955	-17.4963	542.0925	42.1317	-203.2072	-49.7259	557.0471	20.4219	172.8762	-6.434	58.6034	-1.4537	137.9964	-0.0592	0.0182	-0.0073	-0.0462	0.0165	0.9585
47.407	-16.2704	582.481	45.2883	-217.9756	-51.9203	594.6805	15.9739	131.8428	-2.9399	44.8189	-2.6524	105.1801	-0.0592	0.0182	-0.0073	-0.0462	0.0165	0.9585
47.4185	-15.1757	622.1216	49.1031	-232.3398	-54.7754	631.1179	11.8621	97.1286	-0.38991	33.1366	-3.2636	77.4914	-0.0592	0.0182	-0.0073	-0.0462	0.0165	0.9585
47.43	-14.2161	660.5809	53.4014	-246.1755	-58.1284	665.9127	8.2517	68.6915	1.2293	23.5429	-3.3539	54.8565	-0.0592	0.0182	-0.0073	-0.0462	0.0165	0.9585
47.4415	-13.2758	697.2561	57.6598	-259.3161	-61.4295	698.4201	5.2713	46.1189	2.0641	15.9042	-3.0696	36.91	-0.0592	0.0182	-0.0073	-0.0462	0.0165	0.9585
47.453	-12.2802	731.1983	61.7049	-271.4394	-64.4837	727.7232	2.9262	28.8027	2.3095	10.0213	-2.5538	23.1752	-0.0592	0.0182	-0.0073	-0.0462	0.0165	0.9585
47.4645	-11.1482	761.1514	65.3855	-282.1053	-67.1137	752.6065	1.2223	16.0694	2.1418	5.6761	-1.9283	13.0975	-0.0592	0.0182	-0.0073	-0.0462	0.0165	0.9585
47.476	-9.8056	785.8931	68.6814	-290.867	-69.2812	771.9557	0.10756	7.3002	1.721	2.6639	-1.2903	6.1945	-0.0592	0.0182	-0.0073	-0.0462	0.0165	0.9585
47.4875	-8.2	804.416	71.6574	-297.3624	-71.0277	784.8671	-0.49011	1.8109	1.1915	0.76178	-0.7202	1.8825	-0.0592	0.0182	-0.0073	-0.0462	0.0165	0.9585
47.499	-6.2699	816.2312	74.1838	-301.4226	-72.2088	790.9592	-0.74478	-1.123	0.70834	-0.2713	-0.28625	-0.40796	-0.0592	0.0182	-0.0073	-0.0462	0.0165	0.9585
47.5105	-3.9824	821.3499	76.2715	-303.0663	-72.8246	790.3475	-0.75669	-2.3007	0.29645	-0.69846	0.032579	-1.337	-0.0592	0.0182	-0.0073	-0.0462	0.0165	0.9585
47.522	-1.363	820.3516	77.6994	-302.5288	-72.6648	783.6714	-0.6525	-2.3531	-0.014829	-0.73394	0.24769	-1.3695	-0.0592	0.0182	-0.0073	-0.0462	0.0165	0.9585
47.5335	1.5915	814.2638	78.4726	-300.1935	-71.7437	772.0231	-0.4743	-1.817	-0.23566	-0.55662	0.37721	-0.95522	-0.0592	0.0182	-0.0073	-0.0462	0.0165	0.9585
47.545	4.7807	804.3169	78.5101	-296.5163	-70.0193	756.6602	-0.30779	-1.011	-0.37873	-0.28056	0.44979	-0.31435	-0.0592	0.0182	-0.0073	-0.0462	0.0165	0.9585
47.5565	8.1091	791.7786	77.9127	-291.9453	-67.6383	738.8899	-0.14952	-0.19207	-0.45999	0.0074203	0.47159	0.32438	-0.0592	0.0182	-0.0073	-0.0462	0.0165	0.9585
47.568	11.4417	777.8257	76.7706	-286.8953	-64.7336	719.933	-0.055882	0.55076	-0.50728	0.27091	0.474	0.92879	-0.0592	0.0182	-0.0073	-0.0462	0.0165	0.9585
47.5795	14.681	763.5859	75.1597	-281.7558	-61.4273	700.9199	0.017603	1.1494	-0.52243	0.48862	0.4475	1.4222	-0.0592	0.0182	-0.0073	-0.0462	0.0165	0.9585
47.591	17.7088	750.046	73.2376	-276.8589	-57.9061	682.8475	0.038695	1.61	-0.52792	0.65874	0.42813	1.8307	-0.0592	0.0182	-0.0073	-0.0462	0.0165	0.9585
47.6025	20.462	738.0043	71.0513	-272.4707	-54.2539	666.4946	0.068008	1.9255	-0.5124	0.77885	0.40024	2.1042	-0.0592	0.0182	-0.0073	-0.0462	0.0165	0.9585
47.614	22.8299	727.9984	68.8395	-268.7594	-50.7338	652.3854	0.057482	2.113	-0.49466	0.85023	0.39445	2.2831	-0.0592	0.0182	-0.0073	-0.0462	0.0165	0.9585
47.6255	24.8019	720.3227	66.6698	-265.8135	-47.4235	640.765	0.054929	2.1578	-0.46103	0.86657	0.38382	2.3343	-0.0592	0.0182	-0.0073	-0.0462	0.0165	0.9585
